<?xml version="1.0" encoding="UTF-8"?><svg xmlns="http://www.w3.org/2000/svg" viewBox="0 0 86.51 69.78"><defs><style>.d{fill:#fff;}</style></defs><g id="a"/><g id="b"><g id="c"><g><path class="d" d="M65.22,0c-2.59,0-4.69,2.11-4.69,4.69,0,.18,.04,.36,.06,.53l-6,3.63L43.53,1.72,15.19,19.06v8c2.33-1.41,4.61-2.79,6.37-3.84,.99-.59,1.81-1.09,2.39-1.43,.21-.13,.41-.24,.61-.35-.06-.25-.09-.51-.09-.78,0-1.96,1.59-3.55,3.55-3.55s3.55,1.59,3.55,3.55-1.59,3.55-3.55,3.55c-.84,0-1.6-.31-2.21-.79-1.01,.6-5.51,3.31-10.61,6.39v11.06l-4.12,2.45c-.76-.53-1.68-.85-2.68-.85-2.59,0-4.69,2.1-4.69,4.69s2.1,4.69,4.69,4.69,4.69-2.1,4.69-4.69c0-.26-.04-.52-.08-.77l18.72-11.46,2.42-9.48,9.36-5.65-.37-.55c-.66-.99-1.32-1.98-1.82-2.73-.17-.26-.32-.5-.46-.71-.24,.06-.5,.11-.76,.12-1.96,.09-3.61-1.43-3.7-3.39-.09-1.96,1.43-3.61,3.39-3.7,1.96-.09,3.62,1.43,3.7,3.39,.04,.84-.24,1.62-.71,2.26,.5,.76,1.58,2.38,2.73,4.11l16.87-10.19c.79,.61,1.77,.99,2.84,.99,2.59,0,4.69-2.11,4.69-4.69s-2.1-4.69-4.69-4.69ZM8.39,49.04c-1.03,0-1.88-.84-1.88-1.88s.84-1.88,1.88-1.88,1.88,.84,1.88,1.88-.84,1.88-1.88,1.88ZM65.22,6.57c-1.03,0-1.88-.84-1.88-1.88s.84-1.88,1.88-1.88,1.88,.84,1.88,1.88-.84,1.88-1.88,1.88Z"/><path class="d" d="M81.81,1.73c-2.59,0-4.69,2.11-4.69,4.69,0,.28,.04,.54,.08,.81-.37,.2-.79,.45-1.31,.77l-30.43,18.3-2.65,9.64L7.69,57.38c-.81-.68-1.85-1.11-3-1.11-2.59,0-4.69,2.11-4.69,4.69s2.1,4.69,4.69,4.69,4.69-2.11,4.69-4.69c0-.07-.02-.13-.02-.2l36.68-22.4,2.64-9.62c3.96-2.38,25.88-15.48,30.66-18.34,.72,.45,1.56,.71,2.46,.71,2.59,0,4.69-2.11,4.69-4.69s-2.1-4.69-4.69-4.69ZM4.69,62.83c-1.04,0-1.88-.84-1.88-1.88s.84-1.88,1.88-1.88,1.88,.84,1.88,1.88-.84,1.88-1.88,1.88ZM77.89,8.98h0l-1.3,.79,1.3-.79Zm3.92-.69c-1.03,0-1.88-.84-1.88-1.88s.84-1.88,1.88-1.88,1.88,.84,1.88,1.88-.84,1.88-1.88,1.88Z"/><path class="d" d="M79.43,15.44c-2.59,0-4.69,2.11-4.69,4.69,0,.27,.04,.52,.08,.78l-20.75,12.91-2.42,9.49-20.11,12.19-3.69,2.24-6.01,3.64c-.79-.61-1.77-.98-2.84-.98-2.59,0-4.69,2.1-4.69,4.69s2.1,4.69,4.69,4.69,4.69-2.1,4.69-4.69c0-.18-.03-.36-.05-.54l7.62-4.62,11.01,7.1,7.38-4.51c-.53-.8-1.03-1.55-1.45-2.19l-.97-1.46s-.07-.11-.1-.16c-.24,.06-.49,.11-.76,.12-1.96,.09-3.62-1.43-3.7-3.38-.09-1.96,1.43-3.61,3.38-3.7,1.96-.09,3.61,1.43,3.7,3.39,.04,.84-.24,1.62-.7,2.25,.4,.61,1.38,2.09,2.59,3.91l18.96-11.6v-8.41c-.43,.26-.86,.52-1.3,.78-2.12,1.28-4.24,2.56-5.83,3.52l-1.93,1.16c-.13,.08-.26,.15-.39,.22,.05,.25,.09,.51,.09,.77,0,1.96-1.59,3.55-3.55,3.55s-3.55-1.59-3.55-3.55,1.59-3.55,3.55-3.55c.84,0,1.61,.31,2.21,.8,1.13-.66,5.86-3.53,10.69-6.44v-10.83l6.17-3.74c.76,.53,1.68,.85,2.67,.85,2.59,0,4.69-2.11,4.69-4.69s-2.1-4.69-4.69-4.69ZM18.99,66.97c-1.04,0-1.88-.84-1.88-1.88s.84-1.88,1.88-1.88,1.88,.84,1.88,1.88-.84,1.88-1.88,1.88ZM79.43,22.01c-1.03,0-1.88-.84-1.88-1.88s.84-1.88,1.88-1.88,1.88,.84,1.88,1.88-.84,1.88-1.88,1.88Z"/></g></g></g></svg>